# xmcd
#
# Track frame offsets:
#	150
#	16952
#	30897
#	48937
#	61789
#	75025
#	89810
#	107867
#	122325
#	134947
#
# Disc length: 1979
#
# Revision: 3
# Processed by: cddbd v1.5.1PL0 Copyright (c) Steve Scherf et al.
# Submitted via: audiograbber 1.81.03
# Normalized: r1:TDELIM( - ),TSWAP
#
DISCID=7407b90a
DTITLE=Various Artist - Soul Classics Volume 1
DYEAR=1996
DGENRE=
TTITLE0=Rose Royce - Car Wash
TTITLE1=Freda Payne - Band of Gold
TTITLE2=Dells - Oh What A Night
TTITLE3=Fontella Bass - Rescue Me
TTITLE4=Sam and Dave - Soul Man
TTITLE5=Ben E. King - Stand By Me
TTITLE6=Brook Benton - Rainy Night in Georgia
TTITLE7=James Brown - I Got You (I Feel Good)
TTITLE8=Mary Wells - My Guy
TTITLE9=Percy Sledge - When A Man Loves A Woman
EXTD=
EXTT0=
EXTT1=
EXTT2=
EXTT3=
EXTT4=
EXTT5=
EXTT6=
EXTT7=
EXTT8=
EXTT9=
PLAYORDER=
